<?xml version="1.0" encoding="UTF-8"?>
<svg xmlns="http://www.w3.org/2000/svg" version="1.1" viewBox="0 0 1291.6 1377.7">
  <!-- Generator: Adobe Illustrator 29.2.1, SVG Export Plug-In . SVG Version: 2.1.0 Build 116)  -->
  <defs>
    <style>
      .st0, .st1 {
        fill: #f8fdfc;
      }

      .st1 {
        stroke: #000;
        stroke-miterlimit: 10;
        stroke-width: 5px;
      }

      .st2 {
        fill: #190c0b;
      }

      .st3 {
        display: none;
      }
    </style>
  </defs>
  <g id="Layer_2" class="st3">
    <rect class="st2" x="-314.2" y="-335.2" width="1920.9" height="2048"/>
  </g>
  <g id="Layer_3">
    <path class="st1" d="M119.4,500c-.2-.3-.3-.5-.9-.9-.4-.2-.7-.2-.7-.2,0,0,0,0-.1-.3-1-1.3-1.9-2.4-2.8-3.4-18.3-19.7-21.9-42.5-14.2-67.6.9-2.9,2-5.8,3.3-8.8,1.3-1.3,2.4-2.4,3.2-3.7,12.9-21.4,40.1-33.8,65.7-28.9,26.5,5.1,43.3,21.3,51.2,46.8,1,3.4,2.2,4,5.4,3.5,1.4,0,2.4,0,3.8,0,2.6,0,4.9,0,7.5,0,2.6,0,4.9,0,7.5,0,10.5,0,20.5,0,30.9,0,2.3,0,4.2-.3,6.5-.3,15.2.2,29.9.2,45.1.4,2.6,0,4.9,0,7.5,0,4,.2,7.6.9,11.1.4,13.1-1.6,24.1,1.8,32.7,12.3,0,.2.4.3.5.6,8.7,8.6,17.2,17,24.3,23.9,4.9-3.9,9.2-7.4,13.5-10.9,0,0,0,0,.3,0,.8-.5,1.3-.8,1.8-1.2,26.4-25.3,56.3-45.3,89.6-60.3,29.1-13.1,59.3-22,90.9-25.9,9.2-1.1,18.5-2,28-3,0-1.2.2-2.3.2-3.4,0-40.3,0-80.5.1-120.8,0-3.8-1.9-4.4-4.7-5.5-8.3-3.4-17.1-6.2-24.5-11.1-7.5-5-13.7-12.1-20.4-18.2,0,0,0,0,0-.3-1.3-2-2.5-3.7-3.7-5.3,0,0,0,0,0-.4-6-10.5-10.1-21.5-10.3-33.3-.1-9.4,1.3-18.8,2.2-28.4.2-.7.3-1.2.6-1.9,2.4-5.7,4.6-11.1,6.9-16.7,0,0,0-.3.2-.4.4-.5.5-.9.7-1.3,0,0,.1,0,.4-.1,7.5-7.9,14.7-15.6,22.3-23.4,26.2-16.9,53.2-17.5,81.1-5.2,4.4,2.9,8.7,5.5,13.1,8.1,0,0,0,0,0,.3,1.6,1.4,3.1,2.5,4.6,3.9.3.4.5.5.8.8.7,1.1,1.3,1.8,1.9,2.6,0,0,0,0,0,.3.9,1,1.7,1.8,2.7,2.8.4.4.7.6,1.1,1,0,.2.2.6.2.9,16.2,20.5,21.2,43.4,15.4,68.4-1.8,7.6-5.4,14.8-8.2,22.2,0,0,0,0-.3,0-3.9,5-7.6,9.8-11.1,14.8.1.2-.1-.2-.4-.1-1.6,1.3-2.9,2.6-4.2,3.9,0,0,0,0-.3,0-9.6,7.9-20.1,13.5-32,16.3-6.2,1.4-6.3,1.4-5.4,8.5,0,.8,0,1.2,0,2.1-.2,40-.2,79.6-.2,118.8,15.8,1.9,31.2,3,46.3,5.9,27.8,5.3,54.7,13.8,80,26.5,13.3,6.7,26.1,14.6,39.1,21.9,0,0,0,0,0,.3,4.4,3.2,8.7,6.2,13.1,9.1,0,0,0,0,0,.3,1.8,1.4,3.5,2.6,5.2,3.7,0,0,0,0,.1.2.4.4.7.5,1,.6,0,0,0,0,0,.3,1.1.9,2,1.6,3.1,2.6.9.7,1.7,1.2,2.6,1.9,1.1,1,2,1.6,3,2.5,0,.1.4.1.5.4.5.4.8.6,1.2.7,0,0,0,0,0,.3,1.2,1.1,2.3,2,3.4,2.8,0,0,0,0,.1.3.5.6.9.9,1.4,1.6,7.6,7.3,15,14.3,22.8,21.6,2.5-3,4.9-5.7,7.3-8.6,0,0,.1,0,.4,0,8.6-8,16.8-16.1,25.3-24,2.5-2.3,5.8-3.6,9-5.4.2,0,.7-.2,1.1-.1,22.9-.2,45.3-.4,67.7-.5,22.9-.1,45.8-.1,68.9,0,1,0,1.8,0,3-.2,2.7-6.2,5-12.4,7.6-18.7,5.4-6.3,10.6-12.5,16-18.8.8-.4,1.4-.6,1.9-1,21.7-16,45-17.3,68.7-5.9,30,14.5,42.6,50.3,30.4,82.2-11.7,30.6-45.4,46.2-75.9,38.7-10.3-2.5-18.9-7.8-27.2-14.4-.7-.7-1.3-1.1-2-1.8-1.6-1.7-3-3.1-4.5-4.7-.2-.5-.4-.7-.8-1.1-1-1.6-2-2.8-2.7-4.1-3.2-5.9-6.4-11.8-9.7-18-.2-.7-.3-1.1-.5-1.8-28.1-.7-56.1-1.1-84.6-1.5-12.4,0-24.5.3-36.4-.3-8.6-.4-15.4,1.1-21.2,8.2-7,8.5-15.1,16-22.9,24.1,1.3,1.7,3.2,3.8,4.7,6.1,7.6,11.4,15.1,22.8,22.7,34.5,10.5,19.2,19.4,38.7,25.8,59.8,6.2,21.3,11.1,42.4,13.3,64.1.5,4.4,1,8.8,1.5,13.6,0,1.4.2,2.4.3,3.8,1.7.8,3.5,1.7,5.2,1.7,37.2,0,74.4,0,111.5,0q8.4,0,10.2-8.8c.2-.6.3-.9.6-1.5.9-2.1,1.6-3.9,2.3-5.9.1-.2.2-.5.4-.7.6-1.1,1-2,1.5-3.1.4-.7.6-1.2.9-1.9,0-.2,0-.7.1-.9,3.1-4.2,5.9-8.2,9.1-11.9,6.7-8.1,15.6-13.5,24.9-18.6,20.6-8.2,41.1-9.2,61.6-1.2,6.5,2.5,12.4,6.4,18.7,10,3.4,3.3,6.8,6.1,9.9,9.3,3,3.2,5.7,6.7,8.7,10.3.9,1.3,1.6,2.3,2.4,3.7.6,1.8,1.2,3.2,1.9,4.6,9.1,19.2,10.8,38.9,4.2,59.1-2.2,6.6-5.7,12.7-8.6,19.1,0,0,0,0-.2,0-.3.4-.4.8-.6,1.4-1,1.6-1.8,2.9-3,4.4-6.1,5.3-11.9,10.6-17.6,15.8,0,0,0,0-.3,0-1.2.5-2,.9-2.8,1.4-18.5,10.9-38.4,14.6-59.2,9-9.2-2.5-17.7-7.4-26.6-11.5-2.1-1.8-4.1-3.3-6.2-5-.3-.4-.6-.6-1-.9-12.7-12.4-21.6-26.6-24.4-44.1-.4-2.4-1.3-3.9-4.4-2.7-2.6,0-4.8,0-7.1-.1-.7,0-1.2,0-2.2,0-25.2-.2-50-.2-74.8-.2-8.1,0-16.2.2-24.6,0-2.3-.3-4.3-.4-6.3-.5-3-.2-4.3.8-4.5,4.2-.5,8.9-1.4,17.7-2.5,26.5-4.2,31.8-12.7,62.5-26.2,91.7-1.7,3.8-3.2,7.6-4.6,11,3.6,2.8,7,5,10,7.7,8.5,7.7,16.8,15.7,25.2,23.7.2.5.4.6.9.9,6.3,6.4,12.5,12.5,18.7,18.9,6.7,6.8,13.3,13.4,19.9,19.8,1.1,1.1,2.8,1.6,4.2,2.4,0,0,0,0,0,.4,7.6,7.8,15.2,15.3,22.8,22.8,0,0,0,0,0,.1.4,0,.6,0,1.2,0,3.7,4.1,7,8.1,10.7,11.8,11.3,11.1,22.7,22.1,34.1,33.4,2.1,2,4.1,3.8,6.2,5.5,0,0,0,0,0,.2.4.4.7.6,1.1.6.1,0-.1,0,0,.4.7.1,1.2-.1,1.3-.1-.3.5-.2.7,0,1.2,1.4,1.6,2.9,3,4.4,4.6,5,4.7,9.8,9.1,14.8,13.8,1.7,1.7,3.2,3.1,4.9,4.8.4.6.7,1,1,1.7,9,9,18,17.6,27,26.3.4.5.8,1,1.6,1.8,3.9,3.6,7.4,6.8,10.9,10.3,5.3,6.3,13.2,9.6,17.4,16.8,1.6,2.6,4.3,4.6,6.7,6.7,3,2.5,6.3,4.8,9.4,7.4.3.7.7,1.2,1,1.9,5.9,6.3,11.6,12.5,17.8,18.1,10.1,9,19.1,18.9,26,31,2.9,7.8,5.7,15.3,8.6,22.8.6,3.2,1.3,6.3,1.5,10.1-.3,4.8,0,8.9-.2,13.1-.2,4.5-.9,8.9-1.4,13.4-.2.4-.4.8-.8,1.8-4.2,9.5-8.2,18.4-12.2,27.2,0,0-.1.1-.4.4-.4.6-.6.9-.8,1.3,0,0,0,0-.3,0-6.6,7-12.9,13.9-19.1,20.8,0,0,0,0-.3.1-4,4.1-7.7,8.1-11.4,12.1-3.1,3-6.3,5.9-9.9,9.1-.7.4-1,.7-1.2,1,0,0,.1,0-.3,0-6.7,3.7-13,7.5-19.7,11.2-14,5.4-28.2,6.7-43,5.8-4.3-1-8.3-1.6-12.2-2.6-18.2-4.7-32.1-15.9-44.8-29.1-7.5-7.8-15.4-15.3-23.3-23,0,0-.2,0-.3-.1,0,0-.2-.2-.2-.2s-.1-.2-.2-.5c-.8-.7-1.5-1.1-2.2-1.9-1.2-1.4-2.4-2.5-3.6-3.5,0,0,0,0,0-.2-.4-.3-.7-.4-1.2-.6-.5-.4-.8-.6-1.1-1.2-1.1-1.1-2.2-1.9-3.4-3-1.8-2.2-3.5-4.1-5.1-6.3-.9-1.2-1.9-2-3.1-2.7,0,0,0,0,0-.5-1.9-2-3.8-3.6-5.7-5.2-.1.1.1,0,0-.4-.7-.7-1.3-1.2-1.9-1.6,0,0,0,0,0,0-3-3.2-6-6.5-9.3-10.1-1-.9-1.5-1.4-2.1-1.9-.7-.8-1.4-1.7-2.4-2.9-.7-.6-1-.8-1.3-1,0-.3-.1-.5-.6-1-.6-.6-.9-.8-1.2-1-.4-.5-.8-1-1.5-1.8-.7-.5-1-.8-1.3-1,0-.3-.1-.5-.6-1-2.4-2.4-4.5-4.5-6.6-6.5,0,0,0,0-.2-.3-1.4-1.6-2.7-2.8-4-4,0,0,0,0,0-.2-.5-.6-1-.8-1.4-1.1,0,0-.1,0-.1-.2-.3-.3-.5-.5-.8-.6,0,0,0,0,0-.3-1.1-1.3-2.1-2.3-3.1-3.3,0-.3-.1-.5-.7-1.1-2.5-2.4-4.6-4.4-6.7-6.4,0,0,0,.1-.1-.2-7.2-7.6-14.4-14.8-21.6-22,0,0,0,0-.1-.4-3-3-5.9-5.8-8.9-8.6-.1,0,.1,0,0-.2-.5-.6-.9-1-1.3-1.3,0,0,0,0-.1-.3-2.7-2.7-5.2-5.2-7.8-7.6,0,0,0-.1-.2-.4-.6-.6-1.2-1.1-1.7-1.5,0,0-.1,0-.2-.3-.2-.5-.5-.7-.8-.7,0,0,0-.1,0-.4-1-1-1.8-1.7-2.8-2.4,0,0,0,0,0-.2-.5-.6-.9-1-1.3-1.3,0,0,0,0,0-.3-.5-.5-1-.8-1.5-1.1,0,0,0,0,0-.3-.4-.5-.8-.8-1.2-1.3-.4-.4-.6-.6-1-1-.7-.7-1.2-1.2-1.9-1.6,0,0,0,0,0-.3-1.9-2-3.7-3.7-5.6-5.3,0,0,0,0,0-.3-.2-.5-.5-.7-.9-.9-.3-.5-.5-.7-.9-1-2.2-2.3-4.3-4.4-6.5-6.7-.4-.4-.6-.6-1-1-1.2-1.3-2.3-2.3-3.5-3.6-.5-.5-.8-.7-1.2-1.1-.7-.8-1.3-1.4-2.1-2.2-6.5-8.3-15.1-14.1-21.7-22-4.4-5.3-9.8-9.8-14.7-14.6,0,0,0,0-.1-.3-2.2-2.3-4.3-4.3-6.4-6.3,0,0,0,0,0-.3-1.1-1.2-2.2-2-3.3-2.9,0,0,0,0,0-.4-1.4-1.6-2.7-2.8-4.1-4.3-.2-.5-.5-.6-.9-.9-.7-.7-1.3-1.2-1.9-1.6,0,0,0,0,0-.3-1.6-1.7-3.1-3.2-4.7-4.9-5.3-5.7-10.5-11-15.8-16.7-1.9-2.1-3.7-3.8-5.5-5.5,0,0,.1,0,0-.3-.7-1-1.5-1.7-2.2-2.6-.2-.5-.5-.6-.9-.9-5.2-6.3-10.3-12.4-15.4-18.4-2.2,1.2-4.2,2.4-6.2,3.5-21.5,10.8-43.9,19.4-67.3,25.4-5.2,1.3-10.4,2.7-15.7,3.7-7.9,1.5-15.9,2.8-24.3,4.1-1.1,0-1.8.2-2.9.3-6.8.3-13.1,1-19.5.9-4.2,0-5.1,1.5-5.1,5.4.1,35.4,0,70.8,0,106.1,0,1.5,1.7,4,2.9,4.2,10,2,18.9,6.5,27.7,12,3.1,2.7,6.2,5,9.1,7.5,9.9,8.5,15.8,19.7,20.6,31.7.2.7.4,1.2.7,2.1,1,4.8,2.1,9.2,3,14,0,1,.2,1.7.2,2.7,0,1.1.1,1.8.2,2.9,0,3.6,0,6.7-.2,10.3-1.1,6-2.1,11.5-3,17.2,0,0,.1,0-.1,0-.3.5-.4.8-.6,1.2,0,.1,0,.4-.2.7-.4,1.2-.7,2.1-.9,3.1,0,0,0,.1-.2.3-3.1,5.4-5.8,10.6-8.8,15.9-1.8,2.3-3.4,4.5-5.3,6.8-.5.5-.8.9-1.3,1.5-1.2,1.2-2.1,2.3-3.1,3.6-1,.9-1.8,1.6-2.9,2.3-.7.4-1.2.7-1.5,1.1,0,0,0,0-.4,0-8.5,4.7-16.7,9.3-25.2,14-3.2,1-6.1,2-9.3,2.7-12.4,1.6-24.4,1.6-36.3-1.7-5-1.4-10-3.1-15-4.7-9.3-5.8-18.3-12-24.8-21-1.8-2.5-3.7-5-5.8-7.8-.9-1.5-1.6-2.8-2.6-4.6-1.2-1.8-2-3.1-2.9-4.4,0,0,0,0,0-.3-.1-.6-.3-.9-.5-1.3-1.9-8.1-4.7-16.2-5.6-24.4-4.1-36.6,18.4-70.5,53.5-81.5,10.2-3.2,10.2-3.2,10.2-13.9,0-32.8,0-65.5,0-98.3,0-3.7-.9-5.1-4.9-5.2-27.1-1.2-53.7-5.8-79.4-14.1-16.2-5.3-31.9-12.5-48.1-18.8-.4,0-.4,0-.6-.2-.7-.4-1.3-.5-1.9-.5,0,0,.1,0,0-.3-.4-.3-.7-.4-1.2-.6-.2,0-.6,0-.6,0,0,0,0,0,0-.2-.4-.3-.7-.4-1.3-.7-1.3-1-2.4-1.8-3.7-2.8-2.1-1.2-4.2-2-6-3.1-7.7-4.8-15.3-9.6-23-14.6,0-.1-.4-.1-.6-.4-1.1-.8-2-1.2-3-1.7,0,0,0,0,0-.3-1.7-1.3-3.2-2.2-5.1-3.3-15-12.9-29.8-25.8-44.7-38.8-.5.5-1.3,1.1-2.1,1.9-7.1,7.1-14.2,14.2-21.6,21.4-.5.5-.8.9-1,1.2,0,0,0,0-.4,0-2.3,2.2-4.3,4.3-6.3,6.4,0,0,0,0-.3.2-1.6,1.6-2.9,3.1-4.2,4.7,0,0,0,0-.3,0-3.4,1.5-6.5,2.8-9.9,4.4-4.7.7-9.2,1.6-13.6,1.6-35.8,0-71.5,0-107.3,0-1.9,0-3.7.3-5.9.3-1.9,0-3.6,0-5.5-.1-4.8-.9-4.5,2.4-5,5.4-.4.3-.5.5-.7.6,0,0,.1,0,0,.4-.3,1.1-.5,1.7-.7,2.3,0,0,0,0-.1.3-.3.9-.4,1.5-.7,2.2-.2.3-.2.5-.5.8-11,21-28,33-51.3,36.6-.4,0-.5,0-1,0-.7,0-1.2,0-2,0-1.7,0-3,.1-4.7.1-12.1-.1-22.8-3.3-32.7-9.3-3.3-2-6.4-4.2-9.6-6.4,0,0,0,0,0-.4-2-2.1-3.9-4-5.9-5.8,0,0,0,0,0-.3-4.1-6.8-8-13.3-12-19.9,0-.1-.2-.3-.2-.7-6.2-20.6-4.9-40.1,7.1-57.9,4.3-6.4,10.3-11.8,15.6-17.6,0,0-.1,0,.3,0,17.9-11.3,36.7-14.1,57.1-8.6,22.9,7.8,37.2,23.3,43.6,46.1.8,3,2,3.6,4.7,3.6,39.8-.1,79.7-.1,119.5-.3,1.8,0,4.1-.8,5.4-2,10.8-10.4,21.3-21.1,32-31.5,1.9-1.9,1.8-2.9.2-5-16.8-22.3-31-46-41.7-71.9-14.2-34.4-22.3-70.1-24.4-107.2-.2-3.4-1.2-4.5-4.7-4.5-37.5.1-75,0-112.5,0-1.8,0-3.6.2-5.1.2-.9,3.8-1.6,7-2.3,10.1-2.8,13.2-10,24.4-19.2,33.6-11.9,12-26.6,20.1-43.7,22.4-29.1,3.9-53.4-5.4-72.9-27.8-.2-.5-.3-.7-.9-1.3-2.5-3.6-4.6-6.8-6.8-10.4-1.5-3.1-2.9-5.8-4.4-8.8-.2-.9-.4-1.4-.6-2.3-.5-1.6-1.2-3-1.8-4.6-.1-.7-.3-1.1-.3-1.8-.1-.7-.4-1.2-.6-2-.2-1-.4-1.7-.5-2.7,0-.7-.2-1.2-.4-2.1-.2-1.4-.3-2.3-.4-3.6-.2-1.4-.4-2.4-.7-3.9,0-4.2,0-8.1.2-12.1.3-1.6.3-3,.5-4.7.2-1.1.2-1.8.4-2.7.2-.7.2-1.2.3-2.1.9-10.1,5.4-18.4,9.9-26.7,0,0,.2-.3.4-.6,2.3-3.3,4.4-6.3,6.5-9.2,0,0,0,0,.4-.1,2.3-2.2,4.2-4.3,6.1-6.4,0,0,.1,0,.5-.2,4.1-3,7.8-5.8,11.5-8.7,0,0-.1,0,.3,0,8.6-2.9,16.7-5.8,25.3-8.6,10.9-2.4,21.3-2.2,31.8.2,29.8,6.7,48.8,25.1,58.3,53.7,1.1,3.4,2.3,4.5,5.6,4.5,37.8,0,75.5,0,113.3,0,2,0,4,0,6.1,0,.4-3,.7-5.3.9-7.6,2-37,11-72.3,25.8-106.2,4.4-10,9.3-19.7,14-29.5,0,0,0,0,.3-.2,8.7-12.6,17.1-25.2,25.8-37.6,1.9-2.6,2.1-3.9-.3-6.1-9.3-9-18.4-18.1-27.8-27.1-1-.9-2.7-1.5-4.1-1.5-42.4-.1-84.9,0-127.3-.2-2.7,0-3.7,1-4.7,3.3-3.3,7.2-6.9,14.2-10.6,21.5-.7,1-1.2,1.8-1.7,2.6,0,0,0,0-.2.2-3.5,3.2-6.7,6.2-9.9,9.3,0,0,0,0-.3.1-5.8,3.1-11.2,6.5-16.9,9-11.4,5-23.5,5.8-35.6,2.9-5.6-1.3-10.9-3.8-16.4-5.8,0,0,0,0-.2-.2-1.3-.7-2.4-1.2-3.5-1.7,0,0-.1.1-.2-.2-2.5-2-5-3.6-7.4-5.3,0,0,0,0,0-.2-.3-.4-.6-.6-.9-.8M389.2,550.7s0-.1-.6.1c-.3.6-.5,1.1-1.3,2-11.8,20.7-21.3,42.3-27.2,65.9,0,.2,0,.4,0,.7,0,0,0,.2-.5.6-1.8,8.2-3.6,16.3-5.6,25.2,0,.7,0,1.4-.4,2.5,0,.5,0,1-.3,2.2,0,1-.1,2-.6,3.6-.3,3.9-.7,7.8-1.3,12.2,0,.4,0,.9-.4,1.8,0,1.7-.1,3.4-.5,5.7,0,.7,0,1.4-.2,3-.2,9.9-.6,19.9-.5,29.8,0,6.3,1,12.6,1.4,19.6.1.7.3,1.4.1,2.9.6,3.8,1.1,7.6,1.7,12.3.3,1.7.5,3.4.5,5.4.1.4.3.8.4,2,1.6,7.3,3.1,14.5,4.6,22.5,2.9,8.5,5.7,16.9,8.6,26.1,3.8,9,7.2,18.3,11.4,27.1,16.9,35.1,39.7,65.8,69.3,92.2,2.8,2.5,5.4,5.1,8.3,7.3,6.5,5,13.1,9.7,20,15,.3,0,.7,0,1.1,0,0,0,0,0,0,.6.6.3,1.3.7,2.2.6,0,0-.2.4-.2.8,0,0,.3.2.5.6.4.2.9.4,1.8,1.1,1.1.5,2.3,1.1,3.4,1.5,0,0,0,0,.1.7,2.1,1.1,4.2,2.2,6.3,3.2,0,0,0,0,.2.5.8.5,1.7.9,2.7,1.3,0,0,0-.2,0,.4.3.2.7.3,1.3.9.5.2,1,.4,1.8,1.1,18.9,11.1,38.9,19.6,59.9,25.9,33,9.9,66.6,14.1,101.1,12.9,29.3-1,57.7-6.3,85.3-15.9,46.1-16.2,86.1-42.1,119.7-77.9,25.8-27.6,45.6-58.9,58.8-94.2,3.4-9,5.9-18.2,9.3-27.9.9-4.1,1.7-8.2,2.9-12.9.1-.7.2-1.4.8-2.6.4-2.7.8-5.4,1.2-8.9.7-5.6,1.4-11.3,1.9-16.9,1-10.2,2.1-20.4,2.8-30.7.4-5.1,0-10.2.2-16-.3-4.8-.5-9.5-.7-15.1-.1-1-.3-2-.1-3.6-.3-1-.5-2.1-.7-3.8-.1-.7-.2-1.4-.2-2.9-.3-2.2-.7-4.5-1-7.4-.2-.4-.3-.8-.2-1.8-.5-.8-.9-1.6-1.4-3.2-.7-5-1.4-10-2-15.8-.5-1.2-1.1-2.5-1.4-4.4-.8-3-1.6-6-2.3-9.6-.3-.6-.6-1.2-.7-2.3-.2-.6-.3-1.1-.4-2.2-.2-.5-.5-.9-.7-2.1-.2-.4-.3-.8-.4-1.7-.2-.2-.4-.5-.5-1.4-.4-1.2-.9-2.5-1.2-4.2-.2-.2-.4-.4-.6-.6,0,0,0,0,0-.8-7.6-24.8-20.4-46.9-33.9-69.5-12.8-19.2-27.4-37-44.4-52.7-6.5-6-13.4-11.5-20.4-17.7-27.2-21.8-57.6-37.7-90.7-48.7-15.3-5.1-30.7-9.2-46.9-10.5-11.7-1-23.3-3.2-35-3.6-16.1-.5-32.1.3-48.2,2.7-19.3,3-38.6,6.3-57,12.8-18.5,6.6-36.7,14-53.5,24.3-10.6,6.5-20.5,14-30.7,21.1,0,0-.1,0-.7,0-4.9,4.2-9.7,8.4-14.6,12.7,0,0,0,0-.7.1-4.7,4.5-9.4,8.9-14.1,13.4,0,0,0,0-.5,0-.2.3-.3.6-.4.9,0,0,0,0-.7.2-.8,1.1-1.7,2.2-2.3,3.4,0,0-.2,0-.8,0-4.1,4.7-8.2,9.4-12.3,14.2,0,0,0,0-.5,0-.8,1.2-1.6,2.3-2.3,3.5,0,0-.1,0-.7.1-6.3,8.8-12.6,17.5-18.8,26.4,0,0,0-.1-.6.2-2.1,3.6-4.1,7.2-6.2,10.8,0,0,0,0-.5.3-.1.6-.3,1.1-.3,1.7M844.9,987.9s0,0,.1.6c.5.2,1,.5,1.5.5,0,0-.1.1-.1.7,1.6,1.6,3.2,3.3,5,4.8,0,0-.1.2,0,.7,2.2,2.2,4.4,4.4,6.7,6.6,0,0,0,0,0,.5.3.2.6.4.9.4,0,0,0,0,.1.6.8.5,1.5,1.1,2.4,1.6,0,0,0,0,0,.7.9.7,1.7,1.4,2.7,2.2,0,0,0,0,.1.5.3.1.6.3.8.5,0,0,0,.1.1.7,6.7,7.1,13.4,14.2,20.2,21.2,29.5,29.9,59.1,59.7,88.6,89.5,1.9,1.9,4,3.8,5.1,4.9,34.4-34.1,68.3-67.8,102.3-101.5-.1-.3-.2-.6-.4-.8-12.2-12.1-24.4-24.2-36.7-36.2-6.2-6.1-12.6-12-19.1-18,0,0,0,0-.1-.4-.3-.2-.6-.3-.8-.5,0,0,0-.1-.1-.7-.9-.8-1.9-1.6-3-3-7.4-7.4-14.8-14.8-22.3-22.1-21-20.5-42-41-63-61.5-4.3-4.2-8.7-8.3-13.5-12.9-25.4,39.9-57.4,72.3-96.7,98.5,4.8,5.8,9.6,11.5,14.5,17.7.4.2.8.5,1.4.7,0,0,0-.1,0,.5.4.4.9.9,1.4,1.7,0,0,.3.2.5.7.4.2.8.5,1.3.6M1091.9,1240c1.4,1.4,2.8,2.9,4.3,4.3,20.6,20,52.9,21.7,74.5,2.8,11.6-10.1,22-21.7,32.6-32.9,19.1-20.4,17.7-54.5-.9-73.3-14.5-14.7-29.3-29-43.9-43.5-.8-.8-1.8-1.5-2.7-2.2-34.7,34.8-69.1,69.4-104,104.4,13,13.2,26.3,26.5,40,40.4M604.8,195.2c.7.8,1.4,1.7,2.1,2.5,15.7,18.8,40.4,23.9,62.1,12.8,20.7-10.7,30.7-34.2,24.3-57.6-7.3-26.9-38.3-42.7-64.2-33.3-28.3,10.3-44.2,45.7-24.3,75.7M603.3,1237.3c13.4,19.3,33,27.5,54.8,21.6,20.3-5.4,32.8-19.5,36.3-39.8,3.4-19.7-3.7-36.5-20.1-48.3-19.9-14.2-45.4-11.9-63.6,5-16.6,15.4-19.8,40.2-7.4,61.5M1131,669.6c-1.1,1.7-2.2,3.4-3.2,5.2-14.1,24.2-5.1,55.7,19.8,68.2,31.4,15.8,67-4.9,70.9-36.9,2.5-20.2-4.3-36.4-21-47.7-22.1-14.9-47.8-10.4-66.6,11.2M73,689.9c-3,21.1,3.7,38.5,21.4,50.4,29.7,19.7,68.6,2.3,74.8-33,5.3-29.8-17.1-56.7-47.3-57.3-22-.5-44.2,15.6-48.9,39.9M1000.5,1147.4c10.3,10.1,20.7,20.2,30.6,29.8,34.2-34.2,68.7-68.6,102.8-102.7-8.9-9.1-18.1-18.4-27.1-27.9-2.8-2.9-4.4-2.5-7.1.2-23.3,23.5-46.7,46.8-70.1,70.2-9.8,9.8-19.4,19.8-29.1,30.3M1143.6,483.5c19-8.5,26.2-27.1,20.6-45.3-5.3-17.1-22.8-27.4-40.5-23.8-18.4,3.8-30,19.9-28.8,37.9,1.7,24.8,24.2,39.2,48.7,31.2M195.2,438.2c-3-9.2-9-16.1-17.5-20.4-23.5-11.9-50.6,4.6-51.7,31.2-1,24.3,22.1,42.5,45.2,35.8,19.8-5.8,29.8-24.7,23.9-46.6M143.2,914.4c-14.4,10.5-19.9,25.6-14.5,41.4,4.7,13.9,14.5,22.6,29.1,24.4,15.6,2,27.8-4.3,35.7-18,7.6-13.2,6.3-26.5-2.3-38.7-10.9-15.5-30.7-19.2-47.9-9.1Z"/>
    <path class="st0" d="M529.1,929.6c-11.2-6.7-22.5-13.3-33.6-20.2-4.7-2.9-9-6.4-13.8-9.8-5.5-4.8-10.7-9.5-15.9-14.2-27.2-25.4-48.1-55.3-62-89.8-5.2-12.9-8.9-26.4-13.1-40.2,0-1-.3-1.5-.5-2.1,0-.4,0-.8-.1-1.9-.7-3.2-1.3-5.8-2-8.3,0-.7,0-1.5-.1-2.9-.5-3.6-1.1-6.4-1.6-9.3-.1-1.1-.3-2.2-.3-3.8-.1-1.6-.4-2.7-.6-3.7,0-.7,0-1.4,0-2.9-.3-2.9-.7-5.2-1-7.4-.1-3.2-.2-6.3-.2-10.2,0-5.6-.1-10.5-.2-15.4,0-31.9,8.8-61.8,20.6-91.3.3-.8.6-1.2,1.2-2.2,4.5-9.1,8.7-17.6,12.9-26.2.3-.5.7-.9,1.3-1.9,7.9-11.3,15-22.4,23.1-32.8,6.7-8.5,14.4-16.2,21.7-24.3,0,0,0,0,.2-.1.4-.3.5-.6.7-.9,0,0-.1,0,.2,0,.5-.3.6-.6.8-.9,0,0,0,.1.2.1,12.5-9.8,24.5-20.4,37.6-29.1,21.1-14.1,44.1-24.6,68.8-31.1,17.8-4.7,35.7-8.7,54.2-9.4,1.7,0,3.4-.5,5.6-.7,1.4,0,2.2-.2,3-.3,7.2,0,14.4,0,22.3.2,1.1,0,1.6,0,2.1,0,1,.2,2,.3,3.8.6,1.7,0,2.7,0,3.7,0,26.1,2.8,51.7,8,75.9,18.5,9,3.9,17.7,8.4,26.9,12.7,14.2,8.2,27.7,16.9,40.1,27.2,18,14.9,34.1,31.6,48,51,.9,1.1,1.4,1.8,2.1,2.7.4.4.7.6,1,.8,0,0,0,0,0,.3,0,.2.3.5.3.7.5.8,1,1.3,1.5,2.1.5.7.8,1.1,1.2,1.5,0,0,0,0,0,.3.9,1.7,1.8,3.2,2.7,4.6,7,13.8,14,27.5,21.1,41.9,1.4,3.7,2.7,6.8,4.1,9.9,0,.3.1.7.3,1.6,1.7,5.6,3.3,10.6,4.8,16,.1.8.3,1.2.4,1.9.7,3.2,1.6,6.1,2.4,9.3.1.7.3,1.1.3,1.9,1.1,6.4,2.3,12.4,3.5,18.7.1,1.1.3,1.8.3,2.9.5,5.7,1.1,11.1,1.7,16.8,0,.7.1,1.2,0,2,0,7,.3,13.7.4,20.3-.2,2.9-.4,5.8-.8,9.3-.5,6.1-.8,11.5-1.2,16.9-.2.7-.3,1.4-.7,2.7-.2,1.4-.2,2.1-.2,2.9-.1.4-.3.8-.7,1.8-.5,2.2-.7,3.9-.9,5.6-3.4,21.3-9.5,41.8-18.3,61.4-9,19.9-20.3,38.6-34.1,55.6-27.9,34.5-62.3,60-103.2,76.9-35.2,14.6-71.8,20.6-109.8,19.5-24.6-.7-48.7-4.8-72.8-12.3-1.1-.3-1.6-.4-2.1-.5,0,0-.3-.2-.6-.4-1-.3-1.6-.4-2.2-.5-3.5-1.3-7-2.6-10.9-3.9-.8-.3-1.3-.6-2.2-1.1-3-1-5.4-1.9-8-3-.5-.5-.9-.6-1.5-1-2.6-1.2-5-2.2-7.4-3.2M425.4,771.6c.5,1.1,1,2.2,1.5,3.8.4.4.8.9,1.3,1.7,0,.2.2.5.3,1.4,2.6,6.4,4.6,13,7.8,19,4.5,8.7,9.9,16.9,14.8,26,7,9.1,13.6,18.5,21.2,27.1,11.1,12.7,23.4,24.1,37.9,33.8,7.4,4.5,14.8,9,22.7,14,2.5,1.3,4.9,2.6,7.9,4.3,29.7,14.6,61.1,22.6,94.6,23.8,0,0,.4-.1,1.1,0,.4,0,.9,0,2.2.2,5.9,0,11.8-.2,18.6-.2,24-1,47.3-5.8,69.8-14,26.2-9.6,50-23.3,71-41.7,38-33.3,63.5-74.1,73.7-124.4,1.6-9.6,3.2-19.2,5-29.6.2-8.7.8-17.4.6-26.1-.1-7.2-1.1-14.5-1.7-22.4-.1-.4-.2-.9-.1-1.9-.3-1-.5-2.1-.7-3.8-.3-1.7-.6-3.3-.5-5.5-.5-2-1-4-1.4-6.7-.1-.4-.3-.8-.2-1.9-.8-2.7-1.5-5.3-2.3-8.6-.2-.7-.5-1.5-.7-2.7,0,0-.3-.3-.2-1-.4-1-.7-2.1-1.1-3.8-.3-.7-.5-1.3-.6-2.5-.3-.7-.6-1.3-.8-2.5-.3-.7-.6-1.3-.9-2.5-.3-.7-.5-1.4-.9-2.8-.7-1.6-1.3-3.2-1.9-5.4-1.8-4.5-3.4-9-5.3-13.4-6.7-15.1-14.9-29.3-25.3-42.9-2.7-3.3-5.4-6.7-8.3-10.6-4.7-5-9.4-10-14.3-15.6-6.2-5.4-12.3-10.9-18.6-16.2,0,0,.1-.1-.2-.7-12.9-8.6-25.4-17.9-38.8-25.5-9.9-5.6-21.1-9-32.1-13.9-1.3-.4-2.6-.7-4.4-1.4-1.7-.5-3.4-1-5.5-1.9-1.4-.3-2.8-.6-4.8-1.3-2.6-.6-5.3-1.3-8.5-2.1-.7,0-1.4,0-2.6-.4-.8-.1-1.5-.3-2.8-.6-.2,0-.3,0-1-.3-1.1-.1-2.1-.3-3.6-.6-.2,0-.3,0-1.1-.3-4.5-.5-8.9-1.1-13.6-1.9-.3,0-.6.1-1.7,0-2.5-.2-5-.4-8-.9-.8,0-1.5,0-3-.3-2.3,0-4.5,0-7.2-.3,0,0-.4.1-1.3,0-4.1,0-8.2.1-12.8,0,0,0-.4.2-1.2,0-2.2.2-4.5.4-7.2.4-.8.2-1.6.3-3.1.4-2.3.3-4.5.6-7.6.8-1.3.1-2.5.3-4.6.4-5.7,1.1-11.5,2.3-17.8,3.3-.4.1-.8.2-1.8.3-.4.1-.8.2-1.8.2-.4.3-.9.5-1.9.7-.8.3-1.5.6-2.8.8-.5.2-.9.4-2.1.6-1,.3-2,.6-3.5.8-.5.2-.9.5-2,.7-.4.2-.8.4-1.7.4-.5.3-1,.6-2.2,1-.4.2-.8.3-1.9.4-7.6,2.9-15.3,5.9-23.6,9-6.4,3.5-12.7,7.1-19.7,10.6-2.3,1.3-4.7,2.5-7.6,3.8-19.6,11.7-36.7,26.5-51.9,43.4-20.9,23.1-36.5,49.3-46.4,78.8-3.7,11.2-5.8,22.9-8.9,35-.3,1.3-.6,2.7-1.2,4.6,0,1.1-.1,2.2-.4,4-.9,11.6-1.7,23.3-2.7,35.8.1,2.2.1,4.4.4,6.5,1.1,8.8,2.2,17.6,3.2,26.8,0,.2,0,.3,0,1.1.4,1,.8,2,1,3.8.3,1.5.5,2.9.9,4.4.8,3,1.6,6,2.3,9.7.2,1,.5,2,.7,3,0,0,0,0,0,.8,1.3,3.8,2.6,7.6,3.9,12,.2.4.3.8.2,1.7Z"/>
    <path class="st1" d="M988.6,973.4c14.8,14.9,29.7,29.8,44.5,44.6,4.6,4.6,8.8,9.4,7,16.7-1.4,5.4-4.6,9-9.8,10.9-5,1.8-9.5,1-13.3-2.8-11.3-11.2-22.5-22.4-33.8-33.6-1.6-1.6-3.5-3-5.6-4.7-.3-.4-.4-.7-.9-1.2-.6-.6-.9-.9-1.2-1.2-8.9-9.1-17.8-18.2-26.7-27.2-12.1-12.1-24.3-24.1-36.3-36.3-6.3-6.3-7-13-2.3-19.3,4.7-6.3,11.8-7.7,20-3.6.4.2.7.2.7.2,0,0,0,0,.2.3,1.7,1.6,3.2,2.9,4.7,4.2,0,0,0,0,.1.2,7.7,7.7,15.2,15.1,22.7,22.4,0,0,.2.2.4.5,5,5,9.8,9.8,14.7,14.5,0,0,.2.2.3.5,5,5,9.9,9.8,14.7,14.5,0,0,0,0,0,.1Z"/>
    <path class="st1" d="M941.2,1002.2c6.9,7.2,13.8,14.4,20.8,21.5,11.7,11.8,23.5,23.3,35,35.2,5.2,5.3,6,11.3,2.9,17.6-2.7,5.6-7.6,8.6-14.1,7.8-2.7-.4-5.7-1.9-7.7-3.8-10.6-10.2-20.9-20.6-31.5-31.2-9.1-9.2-17.9-18.3-26.8-27.2-15.2-15.3-30.5-30.4-45.6-45.8-6.5-6.6-6.7-14.7-1-20.4,6.5-6.5,14.5-6.5,21.6.1,1.3,1.2,2.5,2.4,4.1,3.9.6.6.8.7,1.2.7,0,0,0,0,0,.2.3.4.6.6.9.8,0,0,0-.1,0,.2,1.8,1.8,3.5,3.2,5.1,4.7,0,0,0,0,0,.3.4.6.8,1,1.3,1.4,0,0,.1,0,.1.2.3.4.6.6.9.8,0,0,0,0,0,.3,1.2,1.1,2.2,2,3.3,2.8,0,0,.1,0,.1.3.6.7,1.1,1.2,1.7,1.6,0,0,0,0,.1.3,4.2,4.4,8.3,8.5,12.4,12.6,0,0,0,0,.1.2.3.4.6.6.9.7,0,0,0-.1,0,.2.6.8,1.2,1.2,1.8,1.7,0,0,0,0,0,.2,4,4.2,8,8.1,12,12,0,0,0,0,0,.1Z"/>
    <path class="st1" d="M449.9,642.9s.3,0,.3-.2c6-8.1,12.7-15.2,21.8-19.4,12.6-6,25.8-6.9,39.5-4.9,14.9,2.2,26.8,9.2,35.7,21.4,7.6,10.5,9,22.6,8.8,35.8-8.6,0-16.6.2-24.7-.2-1.1,0-2.6-3-2.8-4.8-.9-7.5-3.1-14.1-8.4-19.8-9.4-10.1-34.1-10-43,2.4-4.3,6-4.8,12.8,1.2,16.9,6.2,4.1,13.6,6.7,20.7,9.3,10.9,4.1,22.7,6.3,33,11.6,17.1,8.9,27.9,23,27.3,43.4-.3,10.9-5.8,19.9-12.6,28.1-8.3,10.1-19.2,15.7-32.5,18.2-1.1.2-1.5.3-2.1.3-.7.1-1.2.3-2.1.5-5.1,0-9.8.2-14.8.1-.7-.1-1.2,0-1.6,0-3.4-.7-6.9-1.4-10.9-2.3-1.1-.3-1.7-.3-2.2-.4-6.8-2.1-13.1-5.1-18.5-10.7-2.5-2.4-4.6-4.5-6.7-6.5-7.2-10.2-13.3-21-16.9-33-.4-1.5-.7-3-1.1-5-.1-.6-.3-1-.3-1,3-1.2,6-2.5,9.7-3.8,1-.3,1.3-.6,1.6-.8,5.5-.4,10.9-.7,16.8-1.1,5.4,9.7,9.4,20.1,15.6,28.9,11.3,16,38.9,13,47.7-4.4,4.4-8.6.9-18.9-9-23.4-7.9-3.6-16.4-5.7-24.7-8.5-5.7-1.9-11.5-3.8-17.8-6-6.9-4.5-13.7-8.1-19.5-13-8.9-7.7-15.1-17.5-13.3-29.9.8-6,3.9-11.7,6-17.6Z"/>
    <path class="st1" d="M684.8,644.6c0,.7-.1,1.4-.2,2.9-1,1.8-1.9,3.7-3,3.8-3.8.5-7.7.4-11.6.4-19.3,0-38.6,0-57.9-.2-3.2,0-4.3,1.3-3.4,4.6,0,.4,0,.6,0,1.1,0,9.4,0,18.4,0,27.7,12.6,0,24.7,0,37.1.2,7.7,0,15,0,22.5,0,.6,0,.9,0,1.4.1.5,0,.8,0,1.5,0,1.2,0,2,0,3,.3.3.7.5,1.1.5,1.9,0,7.3,0,14.1,0,21,0,.4,0,.9,0,1.9,0,.5.1,1,.1,1-.2.4-.5.7-1.4,1.1-3,0-5.3,0-7.7,0-17.6,0-35.3,0-52.9,0-1.7,0-4.7-1.2-4.7,2.5,0,1.9-.1,3.8-.2,6.5,0,2.4.1,4,.2,5.6,0,1-.1,2-.2,3.8,0,6.2.2,11.5.2,17.2,1.2,1.2,2.5,2.7,3.8,2.7,15.3.1,30.5,0,45.8,0,8.4,0,16.8.2,25.5.5.9,1.5,1.5,2.8,1.7,4.3,0,2.6.2,5.1.4,8,0,4.8,0,9.2-.1,13.8-.5.6-.8,1-1.5,1.4-1.5.1-2.6.2-4,.2-1.7,0-3.1,0-4.8,0-2.6,0-4.9,0-7.4-.1-1,0-1.7,0-2.7,0-1.8,0-3.1,0-4.9,0-20.1-.2-39.8-.2-59.4-.3,0,0-.3-.1-.6-.3-.6-.3-.9-.3-1.2-.1-9.6-2.2-16.7-7.5-20.7-17.4,0-5.5-.1-10.2-.2-14.9,0-1.6.2-3.2.2-5.6-.1-3.1-.2-5.4-.3-7.7.1-2.8.2-5.6.4-9.1,0-2.4-.1-4-.2-5.6,0-4.7.2-9.4.2-15,0-3.1-.1-5.3-.2-7.5.2-14.8.5-29.6.7-44.3,0-3.1.3-6.2,0-9.3-.4-5.5,1.5-9.7,6.1-13.4.6-.6.8-.9,1-1.2,0,0,0,0,.3,0,2.2-1.1,4.1-2.1,6.4-3.2,2.9-.2,5.4-.4,8.2-.4,25.5.2,50.6.3,75.7.3.4,0,.9-.3,1.7-.4,1.9.1,3.4.1,5.1.5.5,2.2.9,4.2,1,6.1.3,4.9.5,9.8.8,14.7Z"/>
    <path class="st1" d="M701.7,657.7c4.3-7.2,7.9-14.9,13-21.5,7.3-9.6,18.1-14.3,29.7-18,13.1-2.9,26.2-3.4,39-1.3,15.9,2.6,29.8,9.5,39.8,22.8.7.9,1.7,1.6,2.8,3.1,2.5,5.1,4.8,9.5,7.1,14.2.2.5.3.7.6,1.2.6,2,1.1,3.6,1.6,5.4.3.9.6,1.5.9,2.4,0,.5.1.8,0,1.3,0,.7.3,1.2.5,2,.2,1.4.5,2.4.7,3.8.2,1.1.4,1.8.6,2.6,0,0,0,0,0,.5.2,3.5.8,6.6.7,9.7-.3,11.5-.4,23.1-1.4,34.5-1.1,12.5-5.7,24-12,34.8,0,0,0,0-.3.1-2.9,3.2-5.3,6.6-8.1,9.4-12.3,12-27.8,16.6-44.4,16.6-10.5,0-21-2-31.5-3.1,0,0-.3-.3-.7-.6-1.6-.6-2.9-.8-4.2-1.2-.1,0-.5,0-.5,0,0,0-.4.3-.3-.1-5.3-3.5-10.6-6.7-15.9-9.8,0,0,0,0,0-.3-.5-.5-1-.8-1.4-1,0,0,0,0-.2-.3-.6-.7-1.1-1.1-1.7-1.5,0,0,0,0-.2-.4-1.7-2.2-3.3-4-5-5.8,0-.3-.3-.6-.8-1.2-.8-1.1-1.4-1.9-2-2.6-.2-.5-.4-1-.9-2-1.3-2.3-2.4-4.2-3.5-6.3-.5-1.5-1-2.7-1.4-4.2-1.1-4.7-2.5-9-3.3-13.4-1.3-7.2-2.2-14.6-3.1-22.3,0-6.1,0-11.8.2-17.8.7-6.3,1.3-12.4,1.9-18.7.4-1,.7-1.7,1.2-2.5.7-2.3,1.2-4.4,1.6-6.6,0,0,0,0,.2,0,.4-.7.6-1.3.8-1.9M730.3,729.7c.9,2.3,1.7,4.7,2.9,6.9,6.6,12.1,17.8,16.6,30.7,17.3,21.7,1.3,36.5-6.3,42.1-28.2,4.5-17.4,4.6-35,1.2-52.5-3.4-17.3-14.4-27.2-31.5-29.2-4.8-.6-9.7-.5-14.5,0-16.4,1.5-27.3,9.9-31,25.9-2.5,10.5-3.5,21.6-3.6,32.4,0,8.9,2.3,17.8,3.8,27.5Z"/>
  </g>
</svg>